<svg width="104" height="104" viewBox="0 0 104 104" fill="none" xmlns="http://www.w3.org/2000/svg">
<path d="M104 52C104 80.7188 80.7188 104 52 104C23.2812 104 0 80.7188 0 52C0 23.2812 23.2812 0 52 0C80.7188 0 104 23.2812 104 52Z" fill="black"/>
<path d="M32.9741 79.0002V23.7002H56.9901C58.3068 23.7002 59.5445 23.8055 60.7031 24.0162C61.9145 24.1742 63.0468 24.4375 64.1001 24.8062C65.2061 25.1749 66.2331 25.6225 67.1811 26.1492C68.1291 26.6759 68.9981 27.2815 69.7881 27.9662C70.5781 28.6509 71.2891 29.3882 71.9211 30.1782C72.5531 30.9682 73.0798 31.8372 73.5011 32.7852C73.9225 33.6805 74.2385 34.6285 74.4491 35.6292C74.7125 36.6299 74.8441 37.6832 74.8441 38.7892C74.8441 41.0012 74.2648 43.0289 73.1061 44.8722C71.9475 46.6629 70.3938 48.1375 68.4451 49.2962C71.0258 50.6129 73.0535 52.4562 74.5281 54.8262C76.0555 57.1435 76.8191 59.7242 76.8191 62.5682C76.8191 63.7269 76.6875 64.8592 76.4241 65.9652C76.2135 67.0712 75.8711 68.1245 75.3971 69.1252C74.9231 70.1259 74.3438 71.0739 73.6591 71.9692C73.0271 72.8119 72.2898 73.6019 71.4471 74.3392C70.6045 75.0765 69.6565 75.7349 68.6031 76.3142C67.6025 76.8935 66.5228 77.3939 65.3641 77.8152C64.2581 78.1839 63.0731 78.4735 61.8091 78.6842C60.5451 78.8949 59.2285 79.0002 57.8591 79.0002H32.9741ZM44.9821 45.5832H56.8321C58.4648 45.5832 59.8341 45.0302 60.9401 43.9242C62.0461 42.8182 62.5991 41.4489 62.5991 39.8162C62.5991 38.1835 62.0461 36.8142 60.9401 35.7082C59.8341 34.6022 58.4648 34.0492 56.8321 34.0492H44.9821V45.5832ZM44.9821 68.6512H58.3331C60.1238 68.6512 61.6248 68.0455 62.8361 66.8342C64.1001 65.5702 64.7321 64.0429 64.7321 62.2522C64.7321 60.4089 64.1265 58.8815 62.9151 57.6702C61.7038 56.4589 60.1765 55.8532 58.3331 55.8532H44.9821V68.6512Z" fill="white"/>
</svg>
