<?xml version="1.0" encoding="utf-8"?>
<!-- Generator: Adobe Illustrator 28.3.0, SVG Export Plug-In . SVG Version: 6.00 Build 0)  -->
<svg version="1.1" id="Layer_1" xmlns="http://www.w3.org/2000/svg" xmlns:xlink="http://www.w3.org/1999/xlink" x="0px" y="0px"
	 viewBox="0 0 24 24" style="enable-background:new 0 0 24 24;" xml:space="preserve">
<style type="text/css">
	.st0{fill:#1A00FF;}
</style>
<g>
	<path class="st0" d="M6,19h3v-6h6v6h3v-9l-6-4.5L6,10V19z M4,21V9l8-6l8,6v12h-7v-6h-2v6H4z"/>
	<polygon class="st0" points="11.8,5.2 19.1,10.2 4.5,10.2 	"/>
	<rect x="5.8" y="10.1" class="st0" width="13.1" height="3.1"/>
	
		<rect x="4" y="14.7" transform="matrix(-1.331655e-13 -1 1 -1.331655e-13 -8.8109 23.7042)" class="st0" width="6.9" height="3.1"/>
	<rect x="13" y="14.6" transform="matrix(6.123234e-17 -1 1 6.123234e-17 0.2714 32.6389)" class="st0" width="6.9" height="3.1"/>
</g>
</svg>
