<svg width="23" height="19" viewBox="0 0 23 19" fill="none" xmlns="http://www.w3.org/2000/svg">
<path d="M18.4819 4.42101C18.3027 4.42101 18.1777 4.42101 18.0512 4.42101C13.383 4.42101 8.71626 4.42379 4.04808 4.41407C3.71047 4.41407 3.59932 4.48073 3.60071 4.84601C3.61461 9.29045 3.61044 13.7349 3.61044 18.1793C3.61044 18.771 3.57293 18.8099 2.98107 18.8099C2.60039 18.8099 2.21832 18.8057 1.83764 18.8099C1.5306 18.8141 1.39305 18.6641 1.4 18.3641C1.40278 18.2488 1.4 18.1335 1.4 18.0182C1.4 13.6432 1.4 9.26684 1.4 4.89184C1.4 4.57703 1.24578 4.41916 0.93735 4.41823C0.856768 4.41823 0.776186 4.41823 0.694215 4.41823C0.041226 4.41823 -0.0532491 4.31268 0.0217752 3.6724C0.260742 1.61545 1.94879 0.029344 4.02168 0.0182329C8.70098 -0.00676712 13.3803 -0.00537823 18.0596 0.0182329C20.1811 0.029344 21.883 1.65295 22.0817 3.76407C22.1331 4.31129 22.0345 4.41962 21.4829 4.4224C20.9596 4.42518 20.6979 4.68351 20.6979 5.1974C20.6979 9.5724 20.6979 13.9488 20.6979 18.3238C20.6979 18.9766 20.6729 19.0002 20.0102 19.0002C19.6643 19.0002 19.3169 19.003 18.971 19.0002C18.5722 18.996 18.4916 18.9127 18.4847 18.5043C18.4805 18.2613 18.4847 18.0196 18.4847 17.7766C18.4847 13.4821 18.4847 9.18768 18.4847 4.89323V4.42379L18.4819 4.42101ZM0.703941 3.72379H21.4232C21.3787 3.50851 21.3509 3.32657 21.3023 3.15018C20.8897 1.66823 19.5601 0.682122 17.9262 0.679344C13.3386 0.6724 8.75238 0.676566 4.16478 0.677955C4.03835 0.677955 3.91054 0.682122 3.78411 0.691844C2.18637 0.811288 0.792858 2.1724 0.703941 3.72379ZM20.013 18.3238V4.59046C19.8226 4.59046 19.6517 4.58768 19.4822 4.59046C19.3808 4.59184 19.2808 4.60295 19.1683 4.6099V18.3238H20.013ZM2.92966 18.1266V4.46268H2.08494V18.1266H2.92966Z" fill="#1A00FF"/>
<path d="M15.0128 13.6699H6.91575C6.91575 13.8074 6.91575 13.9296 6.91575 14.0533C6.91575 15.4616 6.91575 16.8699 6.91575 18.2783C6.91575 18.7255 6.83378 18.8102 6.39475 18.8116C5.29995 18.8158 5.36247 18.8935 5.36525 17.8185C5.36803 16.1102 5.36525 14.4019 5.36525 12.6935C5.36525 12.1671 5.42221 12.1074 5.93488 12.1074C9.28457 12.1074 12.6357 12.1074 15.9854 12.1074C16.5036 12.1074 16.5689 12.1713 16.5689 12.6824C16.5689 14.5408 16.5689 16.3991 16.5689 18.2574C16.5689 18.7435 16.498 18.8102 16.0006 18.813C14.9614 18.8185 15.0073 18.8755 15.0114 17.8463C15.0156 16.588 15.0114 15.3296 15.0114 14.0713V13.6699H15.0128ZM15.9103 12.781H6.02102C6.02102 14.5255 6.02102 16.2435 6.02102 17.963C6.02102 17.9741 6.01685 17.988 6.02241 17.9977C6.05436 18.0491 6.08771 18.1005 6.11966 18.1505C6.16273 18.0963 6.22942 18.0477 6.2447 17.9866C6.26693 17.8991 6.25304 17.8033 6.25304 17.7116C6.25304 16.3144 6.25304 14.9185 6.25304 13.5213C6.25304 13.0685 6.32389 12.9991 6.77543 12.9991C9.57078 12.9991 12.3661 12.9991 15.1615 12.9991C15.5977 12.9991 15.6672 13.0713 15.6672 13.4977C15.6672 14.9519 15.6644 16.406 15.6714 17.8602C15.6714 17.9574 15.7367 18.0546 15.7714 18.1519C15.8172 18.0533 15.9006 17.9533 15.902 17.8546C15.9117 16.7935 15.9076 15.731 15.9076 14.6685C15.9076 14.0477 15.9076 13.4255 15.9076 12.781H15.9103Z" fill="#1A00FF"/>
<path d="M0.704102 3.72372C0.793019 2.17233 2.18653 0.811218 3.78427 0.691774C3.9107 0.682052 4.03852 0.677885 4.16495 0.677885C8.75254 0.677885 13.3388 0.67233 17.9263 0.679274C19.5588 0.682052 20.8898 1.66816 21.3024 3.15011C21.3511 3.3265 21.3789 3.50844 21.4233 3.72372H0.704102Z" fill="#1A00FF"/>
<path d="M20.0132 18.324H19.1685V4.6115C19.281 4.60455 19.3824 4.59344 19.4824 4.59205C19.6533 4.58928 19.8228 4.59205 20.0132 4.59205V18.3254V18.324Z" fill="#1A00FF"/>
<path d="M2.92968 18.1268H2.08496V4.46289H2.92968V18.1268Z" fill="#1A00FF"/>
<path d="M15.91 12.7812C15.91 13.4257 15.91 14.0479 15.91 14.6688C15.91 15.7313 15.9142 16.7924 15.9045 17.8549C15.9045 17.9549 15.8197 18.0535 15.7739 18.1521C15.7391 18.0549 15.6738 17.9576 15.6738 17.8604C15.6669 16.4062 15.6697 14.9521 15.6697 13.4979C15.6697 13.0701 15.6002 12.9993 15.1639 12.9993C12.3686 12.9993 9.57323 12.9993 6.77788 12.9993C6.32635 12.9993 6.25549 13.0688 6.25549 13.5215C6.25549 14.9188 6.25549 16.3146 6.25549 17.7118C6.25549 17.8035 6.26939 17.9007 6.24716 17.9868C6.23187 18.0479 6.16519 18.0965 6.12212 18.1507C6.08877 18.0993 6.05543 18.0493 6.02486 17.9979C6.01931 17.9896 6.02347 17.9757 6.02347 17.9632C6.02347 16.2451 6.02347 14.5257 6.02347 12.7812H15.9128H15.91Z" fill="#1A00FF"/>
</svg>
