<svg width="36" height="36" viewBox="0 0 36 36" fill="none" xmlns="http://www.w3.org/2000/svg">
<path d="M36 18C36 27.9411 27.9411 36 18 36C8.05887 36 0 27.9411 0 18C0 8.05887 8.05887 0 18 0C27.9411 0 36 8.05887 36 18Z" fill="black"/>
<path d="M28.4269 11.7968H30.0658C30.6503 11.7968 31.3442 12.2434 31.5425 12.7783C31.7111 13.2335 31.6982 15.3119 31.6429 15.8726C31.5875 16.4333 31.1601 16.5093 30.649 16.4455C30.4276 16.4185 30.0336 16.2247 30.0336 15.9916V13.3893H28.4269V28.3612C28.4269 28.4851 28.1089 28.7427 27.948 28.7624C27.5476 28.8127 26.022 28.8151 25.6345 28.755C25.4955 28.7341 25.2122 28.5121 25.2122 28.4225V27.3208H12.23V28.4225C12.23 28.5133 11.9467 28.7341 11.8077 28.755C11.4202 28.8139 9.89458 28.8127 9.4942 28.7624C9.33327 28.7415 9.01528 28.4851 9.01528 28.3612V13.3893H7.40858V15.9916C7.40858 16.2247 7.01463 16.4173 6.7932 16.4455C6.2821 16.5081 5.85081 16.4112 5.79931 15.8726C5.74782 15.334 5.72722 13.3219 5.86369 12.8667C6.0362 12.29 6.75715 11.7981 7.37769 11.7981H9.01657V9.80802C9.01657 8.70627 10.6426 7.23522 11.8193 7.21191L25.4414 7.20087C26.734 7.16161 28.4269 8.64861 28.4269 9.86692V11.7968ZM17.8856 11.7968H11.4253C11.3313 11.7968 10.9361 11.9661 10.8524 12.0471C10.6979 12.1931 10.64 12.4213 10.6194 12.6213C10.4263 14.5794 10.77 16.821 10.6194 18.8098C10.5846 19.0453 11.0352 19.5128 11.2309 19.5128H17.883V11.7968H17.8856ZM26.0169 11.7968H19.5566V19.5128H26.2087C26.2769 19.5128 26.5962 19.2846 26.6554 19.2036C26.7468 19.0797 26.8009 18.8981 26.8189 18.7472C27.043 16.8455 26.649 14.5635 26.8215 12.6201C26.7855 12.1759 26.4804 11.8582 26.0143 11.7968H26.0169ZM13.686 22.2279C13.6036 22.1482 13.4762 22.0954 13.3577 22.0819C13.0359 22.0439 11.2528 22.0402 11.0056 22.1113C10.4404 22.2758 10.4559 23.5137 11.1086 23.6118C11.3957 23.6548 13.2251 23.6548 13.4543 23.5885C13.9693 23.4376 14.0233 22.5555 13.686 22.2279ZM23.9763 22.0991C23.4215 22.2328 23.3687 23.4327 23.9905 23.5861C24.2892 23.6597 26.0001 23.6609 26.3349 23.6118C26.9902 23.5149 26.976 22.2721 26.4379 22.1126C25.8688 21.9433 24.6187 22.169 23.9763 22.0991Z" fill="white"/>
</svg>
