<svg width="120" height="120" viewBox="0 0 120 120" fill="none" xmlns="http://www.w3.org/2000/svg">
<path d="M60 120C93.1371 120 120 93.1371 120 60C120 26.8629 93.1371 0 60 0C26.8629 0 0 26.8629 0 60C0 93.1371 26.8629 120 60 120Z" fill="#EF2626"/>
<path d="M58.9942 55H61.9957C66.9643 55 71 58.9937 71 63.9106V87H50V63.9106C50 58.9937 54.0357 55 59.0043 55H58.9942Z" fill="white"/>
<path d="M61 51C65.9706 51 70 46.9706 70 42C70 37.0294 65.9706 33 61 33C56.0294 33 52 37.0294 52 42C52 46.9706 56.0294 51 61 51Z" fill="white"/>
<path d="M84.5659 55H87.4244C92.1564 55 96 58.9937 96 63.9106V87H76V63.9106C76 58.9937 79.8436 55 84.5756 55H84.5659Z" fill="white"/>
<path d="M86 51C90.9706 51 95 46.9706 95 42C95 37.0294 90.9706 33 86 33C81.0294 33 77 37.0294 77 42C77 46.9706 81.0294 51 86 51Z" fill="white"/>
<path d="M33.9942 55H36.9957C41.9643 55 46 58.9937 46 63.9106V87H25V63.9106C25 58.9937 29.0357 55 34.0043 55H33.9942Z" fill="white"/>
<path d="M35 51C39.9706 51 44 46.9706 44 42C44 37.0294 39.9706 33 35 33C30.0294 33 26 37.0294 26 42C26 46.9706 30.0294 51 35 51Z" fill="white"/>
</svg>
