<svg width="15" height="15" viewBox="0 0 15 15" fill="none" xmlns="http://www.w3.org/2000/svg">
<path d="M7.5 15C11.6421 15 15 11.6421 15 7.5C15 3.35786 11.6421 0 7.5 0C3.35786 0 0 3.35786 0 7.5C0 11.6421 3.35786 15 7.5 15Z" fill="#0000FF"/>
<path d="M6.1792 4.46116C6.1792 3.68949 6.74964 3.06641 7.55401 3.06641C8.35838 3.06641 8.94337 3.68967 8.94337 4.46116C8.94337 5.23265 8.35838 5.84118 7.55401 5.84118C6.74964 5.84118 6.1792 5.21791 6.1792 4.46116ZM6.24622 12.18V6.61051H8.90564V12.18H6.24622Z" fill="white"/>
</svg>
