<svg width="121" height="121" viewBox="0 0 121 121" fill="none" xmlns="http://www.w3.org/2000/svg">
<path d="M60.18 120.36C93.4165 120.36 120.36 93.4165 120.36 60.18C120.36 26.9435 93.4165 0 60.18 0C26.9435 0 0 26.9435 0 60.18C0 93.4165 26.9435 120.36 60.18 120.36Z" fill="#0000FF"/>
<path d="M93.9799 54.0298H26.3899V57.8598H93.9799V54.0298Z" fill="white"/>
<path d="M81.99 28.6299H38.97V50.7699H81.99V28.6299Z" fill="white"/>
<path d="M70.4297 73.0801H49.7397V76.3201H70.4297V73.0801Z" fill="white"/>
<path d="M44.8998 85.7401C51.0191 85.7401 55.9798 80.7794 55.9798 74.6601C55.9798 68.5408 51.0191 63.5801 44.8998 63.5801C38.7805 63.5801 33.8198 68.5408 33.8198 74.6601C33.8198 80.7794 38.7805 85.7401 44.8998 85.7401Z" fill="white"/>
<path d="M77.6198 85.7401C83.7391 85.7401 88.6998 80.7794 88.6998 74.6601C88.6998 68.5408 83.7391 63.5801 77.6198 63.5801C71.5005 63.5801 66.5398 68.5408 66.5398 74.6601C66.5398 80.7794 71.5005 85.7401 77.6198 85.7401Z" fill="white"/>
</svg>
