<svg width="67" height="34" viewBox="0 0 67 34" fill="none" xmlns="http://www.w3.org/2000/svg">
<path d="M34.9673 32.539L42.583 0.0172529L55.4565 0C61.0005 0.122208 67.8254 2.16811 66.9182 9.04627C66.3028 13.7132 62.2153 16.777 57.9222 17.92L57.9323 18.1989C59.5469 18.6835 60.8739 19.7675 61.5224 21.3404C61.6575 21.6668 61.9896 22.6085 61.9896 22.9061V32.5404H49.9787V19.178H49.5934L46.5885 32.5404H34.9658L34.9673 32.539ZM50.9492 13.7534H52.3539C53.3028 13.7534 54.5306 12.4278 54.7966 11.5479C55.4335 9.44165 53.9512 8.63795 52.0706 8.80904L50.9492 13.7534Z" fill="black"/>
<path d="M41.0689 0.00439453L38.6434 10.7486L32.1218 10.7659C32.0327 10.7817 32.0183 10.8493 31.9824 10.9169C31.702 11.456 31.6603 12.7442 31.3828 13.3682H37.0001L35.0505 21.9731L29.3499 21.986L27.025 32.5405H15.4023L22.8599 0.00439453H41.0703H41.0689Z" fill="black"/>
<path d="M21.5029 0.00439453L16.1674 23.0902C15.3048 26.2317 13.9993 29.0511 11.2661 30.9719C7.93634 33.3126 3.85027 33.4376 0 32.4427L2.47148 21.5978L2.575 21.5073C3.89197 22.0594 4.77762 21.4196 5.20606 20.1687L9.88016 0.00439453H21.5029Z" fill="black"/>
</svg>
