<svg width="86" height="86" viewBox="0 0 86 86" fill="none" xmlns="http://www.w3.org/2000/svg">
<circle cx="43" cy="43" r="43" fill="#9F9F9F"/>
<path d="M54.2268 61.1033L63.8244 35.8652H50.4055V30H72.0001V30.7998L60.8918 61.1033H54.2268Z" fill="black"/>
<path d="M41.5403 61.1033V35.8208H37.2302V30H48.2052V61.1033H41.5403Z" fill="black"/>
<path d="M25.3305 61.5476C24.5603 61.5476 23.8049 61.4884 23.0644 61.3699C22.3535 61.2514 21.6573 61.0737 20.976 60.8367C20.3243 60.5997 19.7023 60.3183 19.1098 59.9925C18.547 59.6666 18.0138 59.2963 17.5102 58.8816C17.0067 58.4669 16.5475 58.0226 16.1328 57.5486C15.7181 57.0451 15.3626 56.5119 15.0664 55.949C14.7702 55.3566 14.5332 54.7493 14.3555 54.1273C14.1777 53.5052 14.0592 52.8535 14 52.1722H20.4873C20.7242 53.209 21.2722 54.0532 22.1313 54.7049C23.02 55.3566 24.0419 55.6824 25.1972 55.6824C26.5598 55.6824 27.7151 55.1937 28.663 54.2161C29.6109 53.2386 30.0848 52.0833 30.0848 50.7503C30.0848 49.3877 29.6109 48.2176 28.663 47.2401C27.7151 46.2626 26.5598 45.7738 25.1972 45.7738C24.1308 45.7738 23.1681 46.0552 22.309 46.618C21.45 47.1809 20.8427 47.9362 20.4873 48.8841H14.1333L16.7549 30H34.0838V35.9096H22.0869L21.1538 42.0414C21.8943 41.5082 22.7089 41.1083 23.5976 40.8417C24.4862 40.5751 25.4342 40.4418 26.4413 40.4418C27.2115 40.4418 27.9372 40.5159 28.6185 40.664C29.2999 40.7825 29.9515 40.975 30.5736 41.2416C31.2253 41.5082 31.8177 41.8193 32.3509 42.1747C32.9138 42.5302 33.4173 42.9449 33.8617 43.4188C34.306 43.8928 34.7059 44.4112 35.0614 44.974C35.4465 45.5072 35.7575 46.0848 35.9945 46.7069C36.2314 47.329 36.4092 47.9807 36.5277 48.662C36.6758 49.3433 36.7498 50.0542 36.7498 50.7948C36.7498 51.4761 36.6906 52.1426 36.5721 52.7943C36.4536 53.4163 36.2759 54.0236 36.0389 54.616C35.8315 55.2085 35.5649 55.7713 35.2391 56.3045C34.9429 56.8377 34.5874 57.3413 34.1727 57.8152C33.758 58.2596 33.2988 58.6743 32.7953 59.0594C32.3213 59.4445 31.8029 59.7999 31.2401 60.1258C30.6773 60.422 30.07 60.6738 29.4183 60.8811C28.7963 61.0885 28.1446 61.2514 27.4633 61.3699C26.782 61.4884 26.071 61.5476 25.3305 61.5476Z" fill="black"/>
</svg>
