<svg width="86" height="86" viewBox="0 0 86 86" fill="none" xmlns="http://www.w3.org/2000/svg">
<circle cx="43" cy="43" r="43" fill="#9F9F9F"/>
<path d="M60.7369 27C61.4133 27 62.0755 27.0584 62.7237 27.1752C63.3719 27.292 63.9919 27.4526 64.5837 27.657C65.2037 27.8615 65.7814 28.1243 66.3168 28.4455C66.8805 28.7375 67.4018 29.0879 67.8809 29.4968C68.36 29.8764 68.7968 30.2998 69.1914 30.767C69.6141 31.2051 69.9804 31.7015 70.2904 32.2563C70.6004 32.782 70.8681 33.3368 71.0936 33.9208C71.319 34.5049 71.4881 35.1181 71.6009 35.7606C71.7136 36.3738 71.77 37.0162 71.77 37.6879C71.77 39.002 71.5586 40.3015 71.1359 41.5863C70.7413 42.8712 70.0791 44.2583 69.1491 45.7476L61.2019 58.1H54.1002L61.2865 47.4121C60.9765 47.4705 60.6524 47.5143 60.3142 47.5435C60.0042 47.5727 59.6942 47.5873 59.3842 47.5873C58.7642 47.5873 58.1724 47.5435 57.6088 47.4559C57.0452 47.3391 56.4956 47.1931 55.9602 47.0179C55.4247 46.8135 54.9175 46.5653 54.4384 46.2732C53.9593 45.9812 53.5084 45.66 53.0857 45.3096C52.6629 44.9592 52.2684 44.5795 51.902 44.1707C51.5639 43.7327 51.2539 43.28 50.9721 42.8128C50.6902 42.3164 50.4507 41.8054 50.2534 41.2797C50.0562 40.7249 49.9012 40.17 49.7884 39.6152C49.7039 39.0312 49.6616 38.4325 49.6616 37.8193C49.6616 37.1477 49.718 36.4906 49.8307 35.8482C49.9434 35.2057 50.1125 34.5925 50.338 34.0085C50.5634 33.4244 50.8312 32.8696 51.1411 32.3439C51.4793 31.7891 51.8457 31.2781 52.2402 30.8108C52.6348 30.3436 53.0716 29.9202 53.5507 29.5406C54.0297 29.1317 54.537 28.7813 55.0725 28.4893C55.6361 28.1681 56.2138 27.9053 56.8056 27.7008C57.4256 27.4672 58.0597 27.292 58.7079 27.1752C59.356 27.0584 60.0324 27 60.7369 27ZM60.6946 32.782C59.3419 32.782 58.1865 33.2638 57.2283 34.2275C56.2983 35.1911 55.8334 36.3738 55.8334 37.7755C55.8334 39.1188 56.2983 40.2869 57.2283 41.2797C58.1865 42.2434 59.3419 42.7252 60.6946 42.7252C62.0192 42.7252 63.1605 42.2434 64.1187 41.2797C65.0769 40.2869 65.5559 39.1188 65.5559 37.7755C65.5559 36.3738 65.0769 35.1911 64.1187 34.2275C63.1605 33.2638 62.0192 32.782 60.6946 32.782Z" fill="black"/>
<path d="M41.1004 58.0995V33.1757H37V27.4375H47.4412V58.0995H41.1004Z" fill="black"/>
<path d="M28.9609 44.36L34.2009 55H27.0409L23.3209 45.92C22.4809 46.44 22.4809 47.72 22.2009 50.52C22.0409 52.32 21.9609 53.96 21.8809 55H15.8409C16.0009 52.6 16.2009 50.88 16.5609 48.88C17.0809 45.68 18.1209 43.76 20.0809 42.56L15.4409 33.04H22.6009L25.8809 41.72C26.7609 41.44 27.0409 40.8 27.2809 38.64C27.4409 37.12 27.5609 35.04 27.6809 33.04H33.7609C33.6409 35.48 33.5209 36.92 33.3209 38.36C32.8809 41.56 31.6009 43.36 28.9609 44.36Z" fill="black"/>
</svg>
