<svg width="86" height="86" viewBox="0 0 86 86" fill="none" xmlns="http://www.w3.org/2000/svg">
<circle cx="43" cy="43" r="43" fill="white"/>
<path d="M49.7369 27C50.4133 27 51.0755 27.0584 51.7237 27.1752C52.3719 27.292 52.9919 27.4526 53.5837 27.657C54.2037 27.8615 54.7814 28.1243 55.3168 28.4455C55.8805 28.7375 56.4018 29.0879 56.8809 29.4968C57.36 29.8764 57.7968 30.2998 58.1914 30.767C58.6141 31.2051 58.9804 31.7015 59.2904 32.2563C59.6004 32.782 59.8681 33.3368 60.0936 33.9208C60.3191 34.5049 60.4881 35.1181 60.6009 35.7606C60.7136 36.3738 60.77 37.0162 60.77 37.6879C60.77 39.002 60.5586 40.3015 60.1359 41.5863C59.7413 42.8712 59.0791 44.2583 58.1491 45.7476L50.2019 58.1H43.1002L50.2865 47.4121C49.9765 47.4705 49.6524 47.5143 49.3142 47.5435C49.0042 47.5727 48.6942 47.5873 48.3842 47.5873C47.7642 47.5873 47.1724 47.5435 46.6088 47.4559C46.0452 47.3391 45.4956 47.1931 44.9602 47.0179C44.4247 46.8135 43.9175 46.5653 43.4384 46.2732C42.9593 45.9812 42.5084 45.66 42.0857 45.3096C41.6629 44.9592 41.2684 44.5795 40.902 44.1707C40.5639 43.7327 40.2539 43.28 39.9721 42.8128C39.6902 42.3164 39.4507 41.8054 39.2534 41.2797C39.0562 40.7249 38.9012 40.17 38.7884 39.6152C38.7039 39.0312 38.6616 38.4325 38.6616 37.8193C38.6616 37.1477 38.718 36.4906 38.8307 35.8482C38.9434 35.2057 39.1125 34.5925 39.338 34.0085C39.5634 33.4244 39.8312 32.8696 40.1411 32.3439C40.4793 31.7891 40.8457 31.2781 41.2402 30.8108C41.6348 30.3436 42.0716 29.9202 42.5507 29.5406C43.0297 29.1317 43.537 28.7813 44.0725 28.4893C44.6361 28.1681 45.2138 27.9053 45.8056 27.7008C46.4256 27.4672 47.0597 27.292 47.7079 27.1752C48.356 27.0584 49.0324 27 49.7369 27ZM49.6946 32.782C48.3419 32.782 47.1865 33.2638 46.2283 34.2275C45.2983 35.1911 44.8334 36.3738 44.8334 37.7755C44.8334 39.1188 45.2983 40.2869 46.2283 41.2797C47.1865 42.2434 48.3419 42.7252 49.6946 42.7252C51.0192 42.7252 52.1605 42.2434 53.1187 41.2797C54.0769 40.2869 54.5559 39.1188 54.5559 37.7755C54.5559 36.3738 54.0769 35.1911 53.1187 34.2275C52.1605 33.2638 51.0192 32.782 49.6946 32.782Z" fill="black"/>
<path d="M30.1004 58.0995V33.1757H26V27.4375H36.4412V58.0995H30.1004Z" fill="black"/>
</svg>
