<svg width="121" height="121" viewBox="0 0 121 121" fill="none" xmlns="http://www.w3.org/2000/svg">
<path d="M60.18 120.36C93.4165 120.36 120.36 93.4165 120.36 60.18C120.36 26.9435 93.4165 0 60.18 0C26.9435 0 0 26.9435 0 60.18C0 93.4165 26.9435 120.36 60.18 120.36Z" fill="#FFF200"/>
<path d="M99.4301 34.7998H23.0701V54.2298H99.4301V34.7998Z" fill="black"/>
<path d="M99.4301 62.1201H23.0701V81.5501H99.4301V62.1201Z" fill="black"/>
<path d="M83.27 30.4101V96.3701H88.75V30.4101H83.27Z" fill="black"/>
<path d="M34.28 30.4101L34.28 96.3701H39.76L39.76 30.4101H34.28Z" fill="black"/>
<path d="M91.9199 81.5801H22.1599V86.2301H91.9199V81.5801Z" fill="#FFF200"/>
</svg>
